# Blender v2.79 (sub 0) OBJ File: ''
# www.blender.org
mtllib v groove butt welding piece.mtl
o Part_Studio_1_-_V_groove_butt_weld
v -0.003810 0.009525 0.063500
v 0.000000 0.001905 0.063500
v -0.003810 0.009525 -0.063500
v -0.000000 0.001905 -0.063500
v -0.000000 0.000000 -0.063500
v -0.076200 0.000000 -0.063500
v -0.076200 0.009525 -0.063500
v -0.076200 0.009525 0.063500
v -0.076200 0.000000 0.063500
v 0.000000 0.000000 0.063500
vn 0.8944 0.4472 0.0000
vn 0.0000 0.0000 -1.0000
vn -1.0000 0.0000 0.0000
vn 1.0000 0.0000 -0.0000
vn 0.0000 0.0000 1.0000
vn 0.0000 -1.0000 0.0000
vn 0.0000 1.0000 0.0000
usemtl Material.001
s off
f 1//1 2//1 3//1
f 2//1 4//1 3//1
f 5//2 6//2 4//2
f 6//2 7//2 4//2
f 4//2 7//2 3//2
f 8//3 7//3 9//3
f 7//3 6//3 9//3
f 2//4 10//4 4//4
f 10//4 5//4 4//4
f 1//5 8//5 2//5
f 8//5 9//5 2//5
f 2//5 9//5 10//5
f 9//6 6//6 10//6
f 6//6 5//6 10//6
f 3//7 7//7 1//7
f 7//7 8//7 1//7
